<?xml version="1.0" encoding="utf-8"?>
<!-- Svg Vector Icons : http://www.onlinewebfonts.com/icon -->
<!DOCTYPE svg PUBLIC "-//W3C//DTD SVG 1.1//EN" "http://www.w3.org/Graphics/SVG/1.1/DTD/svg11.dtd">
<svg fill="#ccc" version="1.1" xmlns="http://www.w3.org/2000/svg" xmlns:xlink="http://www.w3.org/1999/xlink" x="0px" y="0px" viewBox="0 0 1000 1000" enable-background="new 0 0 1000 1000" xml:space="preserve">
<metadata> Svg Vector Icons : http://www.onlinewebfonts.com/icon </metadata>
<g><path d="M904.8,393.5H606.5V95.2c0-47.1-38.2-85.2-85.2-85.2C474.2,10,436,48.1,436,95.2v298.3H95.2c-47.1,0-85.2,38.1-85.2,85.2c0,47.1,38.2,85.2,85.2,85.2H436v340.9c0,47,38.2,85.2,85.2,85.2c47.1,0,85.2-38.2,85.2-85.2V563.9h298.3c47.1,0,85.2-38.1,85.2-85.2C990,431.6,951.8,393.5,904.8,393.5z"/></g>
</svg>